<svg height="422pt" viewBox="0 -49 422.47041 422" width="422pt" xmlns="http://www.w3.org/2000/svg"><path d="m88.667969 323.707031c23.527343.0625 46.105469-9.289062 62.699219-25.96875l30.640624-30.644531c3.90625-3.902344 3.90625-10.234375 0-14.140625s-10.238281-3.90625-14.140624 0l-30.644532 30.640625c-26.816406 26.816406-70.292968 26.816406-97.109375 0-26.816406-26.816406-26.816406-70.292969 0-97.109375l89.566407-89.566406c17.332031-17.417969 42.652343-24.25 66.390624-17.910157 23.742188 6.339844 42.285157 24.882813 48.625 48.625 6.34375 23.742188-.488281 49.0625-17.90625 66.394532l-16.5 16.5c-3.90625 3.90625-3.90625 10.238281 0 14.144531s10.238282 3.90625 14.144532 0l16.5-16.5c34.625-34.628906 34.628906-90.769531 0-125.398437-34.625-34.628907-90.769532-34.628907-125.398438 0l-89.566406 89.570312c-25.359375 25.359375-32.945312 63.496094-19.21875 96.628906 13.726562 33.132813 46.054688 54.734375 81.917969 54.734375zm0 0"/><path d="m254.601562 70.992188 30.640626-30.640626c26.816406-26.816406 70.292968-26.816406 97.109374 0 26.816407 26.8125 26.816407 70.292969 0 97.105469l-89.566406 89.570313c-17.332031 17.417968-42.652344 24.246094-66.394531 17.90625-23.738281-6.339844-42.285156-24.882813-48.625-48.625-6.339844-23.738282.488281-49.058594 17.910156-66.390625l16.5-16.5c3.90625-3.90625 3.90625-10.238281 0-14.144531s-10.238281-3.90625-14.144531 0l-16.5 16.5c-34.628906 34.625-34.628906 90.769531 0 125.398437s90.773438 34.628906 125.402344 0l89.566406-89.566406c34.628906-34.628907 34.628906-90.773438 0-125.398438-34.628906-34.628906-90.773438-34.628906-125.398438 0l-30.644531 30.640625c-3.902343 3.90625-3.902343 10.238282 0 14.140625 3.90625 3.90625 10.238281 3.90625 14.144531.003907zm0 0"/></svg>