<svg height="512" viewBox="0 0 128 128" width="512" xmlns="http://www.w3.org/2000/svg"><g><path d="m82.306 17.25h-36.612a9.943 9.943 0 0 0 -9.932 9.932v73.636a9.943 9.943 0 0 0 9.932 9.932h36.612a9.943 9.943 0 0 0 9.932-9.932v-73.636a9.943 9.943 0 0 0 -9.932-9.932zm-7.054 3.5v2.06a2.9 2.9 0 0 1 -2.9 2.9h-16.708a2.9 2.9 0 0 1 -2.9-2.9v-2.06zm13.486 80.068a6.439 6.439 0 0 1 -6.432 6.432h-36.612a6.439 6.439 0 0 1 -6.432-6.432v-73.636a6.439 6.439 0 0 1 6.432-6.432h3.552v2.06a6.405 6.405 0 0 0 6.4 6.4h16.707a6.406 6.406 0 0 0 6.4-6.4v-2.06h3.554a6.439 6.439 0 0 1 6.432 6.432z"/><path d="m77 99.828h-26a1.75 1.75 0 0 0 0 3.5h26a1.75 1.75 0 0 0 0-3.5z"/></g></svg>